<svg width="370" height="118" viewBox="0 0 370 118" fill="none" xmlns="http://www.w3.org/2000/svg">
<path d="M133.58 50H142.018V38.0511H146.347L152.722 50H161.927L154.683 36.7045C158.518 34.9659 160.734 31.5398 160.734 26.7159C160.734 19.5398 155.842 15.0909 148.001 15.0909H133.58V50ZM142.018 31.4034V21.892H146.177C149.961 21.892 151.989 23.4773 151.989 26.7159C151.989 29.9545 149.961 31.4034 146.177 31.4034H142.018ZM178.322 50H202.663V43.1477H186.759V35.9716H201.418V29.1023H186.759V21.9432H202.663V15.0909H178.322V50ZM252.594 27.7386C251.742 19.3864 245.52 14.6136 237.083 14.6136C227.776 14.6136 220.532 21.0057 220.532 32.5455C220.532 44.0341 227.605 50.4773 237.083 50.4773C246.662 50.4773 251.963 43.9659 252.594 37.7784L244.071 37.7273C243.475 41.0852 240.952 43.0795 237.253 43.0795C232.276 43.0795 229.14 39.483 229.14 32.5455C229.14 25.8807 232.208 22.0114 237.304 22.0114C241.14 22.0114 243.645 24.2443 244.071 27.7386H252.594ZM278.82 15.0909H270.382V50H278.82V15.0909ZM297.077 50H305.514V39.1591H311.241C319.236 39.1591 324.23 34.4205 324.23 27.1761C324.23 20 319.338 15.0909 311.497 15.0909H297.077V50ZM305.514 32.5114V21.892H309.673C313.457 21.892 315.486 23.9375 315.486 27.1761C315.486 30.3977 313.457 32.5114 309.673 32.5114H305.514ZM341.349 50H365.69V43.1477H349.787V35.9716H364.446V29.1023H349.787V21.9432H365.69V15.0909H341.349V50ZM141.95 102H150.063L156.353 80.8295H156.626L162.916 102H171.046L181.188 67.0909H171.882L166.597 90.017H166.308L160.291 67.0909H152.688L146.671 89.9659H146.382L141.114 67.0909H131.791L141.95 102ZM229.961 84.5455C229.961 73.0057 222.665 66.6136 213.29 66.6136C203.881 66.6136 196.637 73.0057 196.637 84.5455C196.637 96.0341 203.881 102.477 213.29 102.477C222.665 102.477 229.961 96.0852 229.961 84.5455ZM221.336 84.5455C221.336 91.3807 218.336 95.0795 213.29 95.0795C208.262 95.0795 205.245 91.3807 205.245 84.5455C205.245 77.7102 208.262 74.0114 213.29 74.0114C218.336 74.0114 221.336 77.7102 221.336 84.5455ZM249.287 102H257.724V90.0511H262.054L268.429 102H277.633L270.389 88.7045C274.224 86.9659 276.44 83.5398 276.44 78.7159C276.44 71.5398 271.548 67.0909 263.707 67.0909H249.287V102ZM257.724 83.4034V73.892H261.883C265.667 73.892 267.696 75.4773 267.696 78.7159C267.696 81.9545 265.667 83.4034 261.883 83.4034H257.724ZM295.468 102H318.428V95.1477H303.905V67.0909H295.468V102ZM350.099 102C360.736 102 367.332 95.4375 367.332 84.5284C367.332 73.6364 360.736 67.0909 350.082 67.0909H337.196V102H350.099ZM345.634 94.8068V74.2841H349.656C355.656 74.2841 358.878 77.0114 358.878 84.5284C358.878 92.0795 355.656 94.8068 349.776 94.8068H345.634Z" fill="url(#paint0_linear_2_8)"/>
<path d="M58.5255 0C26.2032 0 0 26.4156 0 59C0 91.5844 26.2032 118 58.5255 118C90.8478 118 117.051 91.5844 117.051 59C117.051 26.4156 90.8478 0 58.5255 0ZM6.6654 62.2778H19.6158C19.9149 70.4919 21.313 78.2438 23.6118 85.2222H13.5194C9.59493 78.3946 7.17912 70.6066 6.6654 62.2778V62.2778ZM61.7769 26.2222V6.82106C70.7085 8.25017 78.5607 15.5236 83.8833 26.2222H61.7769ZM86.6535 32.7778C89.105 39.6054 90.6169 47.3967 90.9356 55.7222H61.7769V32.7778H86.6535ZM55.2741 6.82106V26.2222H33.1677C38.487 15.5236 46.3424 8.25017 55.2741 6.82106ZM55.2741 32.7778V55.7222H26.1154C26.434 47.3967 27.9459 39.6054 30.3975 32.7778H55.2741ZM19.619 55.7222H6.6654C7.17912 47.3967 9.59493 39.6054 13.5161 32.7778H23.6085C21.3163 39.7562 19.9182 47.5114 19.619 55.7222ZM26.1154 62.2778H55.2741V85.2222H30.3975C27.9459 78.3946 26.434 70.6066 26.1154 62.2778ZM55.2741 91.7778V111.179C46.3424 109.747 38.487 102.476 33.1677 91.7778H55.2741V91.7778ZM61.7769 111.179V91.7778H83.8865C78.5639 102.476 70.7085 109.747 61.7769 111.179ZM61.7769 85.2222V62.2778H90.9388C90.6169 70.6066 89.1083 78.3946 86.6567 85.2222H61.7769ZM97.4352 62.2778H110.382C109.872 70.6066 107.456 78.3946 103.532 85.2222H93.4392C95.7347 78.2438 97.1328 70.4919 97.4352 62.2778ZM97.4352 55.7222C97.1328 47.5114 95.7347 39.7562 93.4392 32.7778H103.532C107.456 39.6054 109.872 47.3967 110.382 55.7222H97.4352ZM99.0999 26.2222H90.9616C88.6303 20.9647 85.7398 16.3397 82.4461 12.4588C88.9132 15.8415 94.5804 20.5418 99.0999 26.2222ZM34.6048 12.4588C31.3079 16.3397 28.4174 20.9647 26.0861 26.2222H17.9511C22.4705 20.5418 28.1377 15.8448 34.6048 12.4588ZM17.9511 91.7778H26.0894C28.4174 97.0353 31.3079 101.66 34.6048 105.538C28.1377 102.155 22.4705 97.4582 17.9511 91.7778ZM82.4461 105.538C85.7431 101.657 88.6303 97.0353 90.9616 91.7778H99.0999C94.5804 97.4582 88.9132 102.155 82.4461 105.538Z" fill="url(#paint1_linear_2_8)"/>
<defs>
<linearGradient id="paint0_linear_2_8" x1="250.469" y1="7" x2="250.469" y2="111" gradientUnits="userSpaceOnUse">
<stop stop-color="#3B88C3"/>
<stop offset="1" stop-color="#286595"/>
</linearGradient>
<linearGradient id="paint1_linear_2_8" x1="58.5255" y1="0" x2="58.5255" y2="118" gradientUnits="userSpaceOnUse">
<stop stop-color="#3B88C3"/>
<stop offset="1" stop-color="#286595"/>
</linearGradient>
</defs>
</svg>
